<?xml version="1.0" encoding="UTF-8"?>
<svg enable-background="new 0 0 120.64 122.88" version="1.1" viewBox="0 0 120.64 122.88" xml:space="preserve" xmlns="http://www.w3.org/2000/svg"><g fill="#354f52"><path d="m66.6 108.91c1.55 1.63 2.31 3.74 2.28 5.85s-0.84 4.2-2.44 5.79l-0.12 0.12c-1.58 1.5-3.6 2.23-5.61 2.2s-4.02-0.82-5.55-2.37c-17.66-17.65-35.13-35.6-52.68-53.39-0.07-0.05-0.13-0.1-0.19-0.16-1.56-1.63-2.32-3.76-2.29-5.87s0.85-4.21 2.45-5.8l0.27-0.26c17.49-17.55 34.93-35.15 52.45-52.66 1.54-1.54 3.53-2.33 5.54-2.36s4.03 0.7 5.61 2.21l0.15 0.15c1.57 1.58 2.38 3.66 2.41 5.76s-0.73 4.22-2.28 5.85l-47.22 47.26 47.22 47.68zm51.77-2c1.54 1.62 2.29 3.73 2.26 5.83-0.03 2.11-0.84 4.2-2.44 5.79l-0.12 0.12c-1.57 1.5-3.6 2.23-5.61 2.21-2.01-0.03-4.02-0.82-5.55-2.37-17.28-17.29-35.15-34.29-52.67-51.37-0.07-0.05-0.14-0.11-0.21-0.17-1.55-1.63-2.31-3.76-2.28-5.87s0.85-4.21 2.45-5.8c17.5-16.95 35.07-33.84 52.6-50.77l0.12-0.13c1.53-1.54 3.53-2.32 5.54-2.35s4.03 0.7 5.61 2.21l0.15 0.15c1.57 1.58 2.38 3.66 2.41 5.76s-0.73 4.22-2.28 5.85l-47.18 45.23 47.2 45.68z" fill="#354f52"/></g></svg>
