<?xml version="1.0" encoding="UTF-8"?>
<svg enable-background="new 0 0 122.88 122.88" version="1.1" viewBox="0 0 122.88 122.88" xml:space="preserve" xmlns="http://www.w3.org/2000/svg"><style type="text/css">.st0{fill-rule:evenodd;clip-rule:evenodd;}</style><g fill="#354f52"><path class="st0" d="m1.63 97.99 36.55-36.55-36.55-36.55c-2.17-2.17-2.17-5.73 0-7.9l15.36-15.36c2.17-2.17 5.73-2.17 7.9 0l36.55 36.55 36.55-36.55c2.17-2.17 5.73-2.17 7.9 0l15.36 15.36c2.17 2.17 2.17 5.73 0 7.9l-36.55 36.55 36.55 36.55c2.17 2.17 2.17 5.73 0 7.9l-15.36 15.36c-2.17 2.17-5.73 2.17-7.9 0l-36.55-36.55-36.55 36.55c-2.17 2.17-5.73 2.17-7.9 0l-15.36-15.36c-2.17-2.17-2.17-5.73 0-7.9z" fill="#354f52"/></g></svg>
